<mxfile>
    <diagram id="tfVT7eurTqDPEIlZL15O" name="Page-1">
        <mxGraphModel dx="1197" dy="737" grid="1" gridSize="10" guides="1" tooltips="1" connect="1" arrows="1" fold="1" page="1" pageScale="1" pageWidth="827" pageHeight="1169" math="0" shadow="0">
            <root>
                <mxCell id="0"/>
                <mxCell id="1" parent="0"/>
                <mxCell id="119" value="" style="whiteSpace=wrap;html=1;aspect=fixed;shadow=0;strokeColor=#33001A;fillColor=#FF3333;" vertex="1" parent="1">
                    <mxGeometry width="1070" height="1070" as="geometry"/>
                </mxCell>
                <mxCell id="3" value="q2" style="ellipse;whiteSpace=wrap;html=1;aspect=fixed;strokeColor=#33001A;shadow=0;" vertex="1" parent="1">
                    <mxGeometry x="431" y="155" width="80" height="80" as="geometry"/>
                </mxCell>
                <mxCell id="4" value="q3" style="ellipse;whiteSpace=wrap;html=1;aspect=fixed;strokeColor=#33001A;shadow=0;" vertex="1" parent="1">
                    <mxGeometry x="210" y="275" width="80" height="80" as="geometry"/>
                </mxCell>
                <mxCell id="5" value="q10" style="ellipse;whiteSpace=wrap;html=1;aspect=fixed;strokeColor=#33001A;shadow=0;" vertex="1" parent="1">
                    <mxGeometry x="670" y="255" width="80" height="80" as="geometry"/>
                </mxCell>
                <mxCell id="6" value="q12" style="ellipse;whiteSpace=wrap;html=1;aspect=fixed;strokeColor=#33001A;shadow=0;" vertex="1" parent="1">
                    <mxGeometry x="810" y="425" width="80" height="80" as="geometry"/>
                </mxCell>
                <mxCell id="7" value="q11" style="ellipse;whiteSpace=wrap;html=1;aspect=fixed;strokeColor=#33001A;shadow=0;" vertex="1" parent="1">
                    <mxGeometry x="580" y="385" width="80" height="80" as="geometry"/>
                </mxCell>
                <mxCell id="8" value="q7" style="ellipse;whiteSpace=wrap;html=1;aspect=fixed;strokeColor=#33001A;shadow=0;" vertex="1" parent="1">
                    <mxGeometry x="320" y="415" width="80" height="80" as="geometry"/>
                </mxCell>
                <mxCell id="9" value="q4" style="ellipse;whiteSpace=wrap;html=1;aspect=fixed;strokeColor=#33001A;shadow=0;" vertex="1" parent="1">
                    <mxGeometry x="110" y="425" width="80" height="80" as="geometry"/>
                </mxCell>
                <mxCell id="10" value="q16" style="ellipse;whiteSpace=wrap;html=1;aspect=fixed;strokeColor=#33001A;shadow=0;" vertex="1" parent="1">
                    <mxGeometry x="890" y="571" width="80" height="80" as="geometry"/>
                </mxCell>
                <mxCell id="11" value="q15" style="ellipse;whiteSpace=wrap;html=1;aspect=fixed;strokeColor=#33001A;shadow=0;" vertex="1" parent="1">
                    <mxGeometry x="760" y="571" width="80" height="80" as="geometry"/>
                </mxCell>
                <mxCell id="12" value="q14" style="ellipse;whiteSpace=wrap;html=1;aspect=fixed;strokeColor=#33001A;shadow=0;" vertex="1" parent="1">
                    <mxGeometry x="637" y="575" width="80" height="80" as="geometry"/>
                </mxCell>
                <mxCell id="13" value="q13" style="ellipse;whiteSpace=wrap;html=1;aspect=fixed;strokeColor=#33001A;shadow=0;" vertex="1" parent="1">
                    <mxGeometry x="530" y="571" width="80" height="80" as="geometry"/>
                </mxCell>
                <mxCell id="14" value="q9" style="ellipse;whiteSpace=wrap;html=1;aspect=fixed;strokeColor=#33001A;shadow=0;" vertex="1" parent="1">
                    <mxGeometry x="400" y="585" width="80" height="80" as="geometry"/>
                </mxCell>
                <mxCell id="15" value="q8" style="ellipse;whiteSpace=wrap;html=1;aspect=fixed;strokeColor=#33001A;shadow=0;" vertex="1" parent="1">
                    <mxGeometry x="280" y="585" width="80" height="80" as="geometry"/>
                </mxCell>
                <mxCell id="16" value="q6" style="ellipse;whiteSpace=wrap;html=1;aspect=fixed;strokeColor=#33001A;shadow=0;" vertex="1" parent="1">
                    <mxGeometry x="160" y="585" width="80" height="80" as="geometry"/>
                </mxCell>
                <mxCell id="17" value="q5" style="ellipse;whiteSpace=wrap;html=1;aspect=fixed;strokeColor=#33001A;shadow=0;" vertex="1" parent="1">
                    <mxGeometry x="20" y="575" width="80" height="80" as="geometry"/>
                </mxCell>
                <mxCell id="18" value="" style="endArrow=classic;html=1;exitX=0;exitY=0.5;exitDx=0;exitDy=0;entryX=1;entryY=0;entryDx=0;entryDy=0;strokeColor=#33001A;shadow=0;" edge="1" parent="1" source="3" target="4">
                    <mxGeometry width="50" height="50" relative="1" as="geometry">
                        <mxPoint x="330" y="140" as="sourcePoint"/>
                        <mxPoint x="380" y="90" as="targetPoint"/>
                    </mxGeometry>
                </mxCell>
                <mxCell id="19" value="" style="endArrow=classic;html=1;exitX=1;exitY=0.5;exitDx=0;exitDy=0;entryX=0;entryY=0;entryDx=0;entryDy=0;strokeColor=#33001A;shadow=0;" edge="1" parent="1" source="3" target="5">
                    <mxGeometry width="50" height="50" relative="1" as="geometry">
                        <mxPoint x="450" y="120" as="sourcePoint"/>
                        <mxPoint x="288.2842712474619" y="211.7157287525381" as="targetPoint"/>
                    </mxGeometry>
                </mxCell>
                <mxCell id="20" value="" style="endArrow=classic;html=1;exitX=0;exitY=1;exitDx=0;exitDy=0;entryX=0.75;entryY=0.075;entryDx=0;entryDy=0;entryPerimeter=0;strokeColor=#33001A;shadow=0;" edge="1" parent="1" source="4" target="9">
                    <mxGeometry width="50" height="50" relative="1" as="geometry">
                        <mxPoint x="340.86" y="365" as="sourcePoint"/>
                        <mxPoint x="179.14427124746192" y="456.7157287525381" as="targetPoint"/>
                    </mxGeometry>
                </mxCell>
                <mxCell id="21" value="" style="endArrow=classic;html=1;exitX=0.938;exitY=0.75;exitDx=0;exitDy=0;entryX=0.3;entryY=0.038;entryDx=0;entryDy=0;entryPerimeter=0;exitPerimeter=0;strokeColor=#33001A;shadow=0;" edge="1" parent="1" source="4" target="8">
                    <mxGeometry width="50" height="50" relative="1" as="geometry">
                        <mxPoint x="241.7157287525381" y="373.2842712474619" as="sourcePoint"/>
                        <mxPoint x="180" y="441" as="targetPoint"/>
                    </mxGeometry>
                </mxCell>
                <mxCell id="22" value="" style="endArrow=classic;html=1;exitX=0;exitY=1;exitDx=0;exitDy=0;entryX=0.725;entryY=0.063;entryDx=0;entryDy=0;entryPerimeter=0;strokeColor=#33001A;shadow=0;" edge="1" parent="1" source="5" target="7">
                    <mxGeometry width="50" height="50" relative="1" as="geometry">
                        <mxPoint x="451.03999999999996" y="475" as="sourcePoint"/>
                        <mxPoint x="530" y="548.04" as="targetPoint"/>
                    </mxGeometry>
                </mxCell>
                <mxCell id="23" value="" style="endArrow=classic;html=1;exitX=0.938;exitY=0.788;exitDx=0;exitDy=0;entryX=0.5;entryY=0;entryDx=0;entryDy=0;exitPerimeter=0;strokeColor=#33001A;shadow=0;" edge="1" parent="1" source="5" target="6">
                    <mxGeometry width="50" height="50" relative="1" as="geometry">
                        <mxPoint x="701.7157287525379" y="373.28427124746213" as="sourcePoint"/>
                        <mxPoint x="658" y="440.03999999999996" as="targetPoint"/>
                    </mxGeometry>
                </mxCell>
                <mxCell id="24" value="" style="endArrow=classic;html=1;entryX=1;entryY=0;entryDx=0;entryDy=0;strokeColor=#33001A;shadow=0;" edge="1" parent="1" source="9" target="17">
                    <mxGeometry width="50" height="50" relative="1" as="geometry">
                        <mxPoint x="201.7157287525381" y="495.00427124746193" as="sourcePoint"/>
                        <mxPoint x="88.82352941176464" y="579.7058823529414" as="targetPoint"/>
                    </mxGeometry>
                </mxCell>
                <mxCell id="25" value="" style="endArrow=classic;html=1;exitX=1;exitY=1;exitDx=0;exitDy=0;entryX=0.5;entryY=0;entryDx=0;entryDy=0;strokeColor=#33001A;shadow=0;" edge="1" parent="1" source="9" target="16">
                    <mxGeometry width="50" height="50" relative="1" as="geometry">
                        <mxPoint x="140" y="515" as="sourcePoint"/>
                        <mxPoint x="95.03999999999996" y="584.04" as="targetPoint"/>
                    </mxGeometry>
                </mxCell>
                <mxCell id="26" value="" style="endArrow=classic;html=1;exitX=0;exitY=1;exitDx=0;exitDy=0;entryX=0.5;entryY=0;entryDx=0;entryDy=0;strokeColor=#33001A;shadow=0;" edge="1" parent="1" source="8" target="15">
                    <mxGeometry width="50" height="50" relative="1" as="geometry">
                        <mxPoint x="188.2842712474619" y="503.2842712474619" as="sourcePoint"/>
                        <mxPoint x="220" y="585" as="targetPoint"/>
                    </mxGeometry>
                </mxCell>
                <mxCell id="27" value="" style="endArrow=classic;html=1;exitX=1;exitY=1;exitDx=0;exitDy=0;entryX=0.5;entryY=0;entryDx=0;entryDy=0;strokeColor=#33001A;shadow=0;" edge="1" parent="1" source="8" target="14">
                    <mxGeometry width="50" height="50" relative="1" as="geometry">
                        <mxPoint x="371.7157287525381" y="503.2842712474619" as="sourcePoint"/>
                        <mxPoint x="340" y="585" as="targetPoint"/>
                    </mxGeometry>
                </mxCell>
                <mxCell id="28" value="" style="endArrow=classic;html=1;exitX=0.325;exitY=0.975;exitDx=0;exitDy=0;entryX=0.5;entryY=0;entryDx=0;entryDy=0;exitPerimeter=0;strokeColor=#33001A;shadow=0;" edge="1" parent="1" source="7" target="13">
                    <mxGeometry width="50" height="50" relative="1" as="geometry">
                        <mxPoint x="428.2842712474619" y="503.2842712474619" as="sourcePoint"/>
                        <mxPoint x="460" y="585" as="targetPoint"/>
                    </mxGeometry>
                </mxCell>
                <mxCell id="29" value="" style="endArrow=classic;html=1;exitX=1;exitY=1;exitDx=0;exitDy=0;entryX=0.5;entryY=0;entryDx=0;entryDy=0;strokeColor=#33001A;shadow=0;" edge="1" parent="1" source="7" target="12">
                    <mxGeometry width="50" height="50" relative="1" as="geometry">
                        <mxPoint x="626" y="513" as="sourcePoint"/>
                        <mxPoint x="580" y="581" as="targetPoint"/>
                    </mxGeometry>
                </mxCell>
                <mxCell id="30" value="" style="endArrow=classic;html=1;exitX=0.25;exitY=0.979;exitDx=0;exitDy=0;entryX=0.5;entryY=0;entryDx=0;entryDy=0;exitPerimeter=0;strokeColor=#33001A;shadow=0;" edge="1" parent="1" source="6" target="11">
                    <mxGeometry width="50" height="50" relative="1" as="geometry">
                        <mxPoint x="668.2842712474621" y="503.28427124746213" as="sourcePoint"/>
                        <mxPoint x="710" y="585" as="targetPoint"/>
                    </mxGeometry>
                </mxCell>
                <mxCell id="31" value="" style="endArrow=classic;html=1;exitX=1;exitY=1;exitDx=0;exitDy=0;entryX=0.5;entryY=0;entryDx=0;entryDy=0;strokeColor=#33001A;shadow=0;" edge="1" parent="1" source="6" target="10">
                    <mxGeometry width="50" height="50" relative="1" as="geometry">
                        <mxPoint x="840" y="513.3199999999999" as="sourcePoint"/>
                        <mxPoint x="810" y="581" as="targetPoint"/>
                    </mxGeometry>
                </mxCell>
                <mxCell id="33" value="4,a,b,c" style="text;html=1;strokeColor=#33001A;fillColor=none;align=center;verticalAlign=middle;whiteSpace=wrap;rounded=0;shadow=0;" vertex="1" parent="1">
                    <mxGeometry x="410" y="130" width="40" height="20" as="geometry"/>
                </mxCell>
                <mxCell id="34" value="2,a,b,c" style="text;html=1;strokeColor=#33001A;fillColor=none;align=center;verticalAlign=middle;whiteSpace=wrap;rounded=0;shadow=0;" vertex="1" parent="1">
                    <mxGeometry x="150" y="355" width="40" height="20" as="geometry"/>
                </mxCell>
                <mxCell id="35" value="1,b,a,c" style="text;html=1;strokeColor=#33001A;fillColor=none;align=center;verticalAlign=middle;whiteSpace=wrap;rounded=0;shadow=0;" vertex="1" parent="1">
                    <mxGeometry x="780" y="515" width="40" height="20" as="geometry"/>
                </mxCell>
                <mxCell id="36" value="1,c,b,a" style="text;html=1;strokeColor=#33001A;fillColor=none;align=center;verticalAlign=middle;whiteSpace=wrap;rounded=0;shadow=0;" vertex="1" parent="1">
                    <mxGeometry x="670" y="495" width="40" height="20" as="geometry"/>
                </mxCell>
                <mxCell id="37" value="1,a,c,b" style="text;html=1;strokeColor=#33001A;fillColor=none;align=center;verticalAlign=middle;whiteSpace=wrap;rounded=0;shadow=0;" vertex="1" parent="1">
                    <mxGeometry x="550" y="505" width="40" height="20" as="geometry"/>
                </mxCell>
                <mxCell id="38" value="1,a,c,b" style="text;html=1;strokeColor=#33001A;fillColor=none;align=center;verticalAlign=middle;whiteSpace=wrap;rounded=0;shadow=0;" vertex="1" parent="1">
                    <mxGeometry x="190" y="505" width="40" height="20" as="geometry"/>
                </mxCell>
                <mxCell id="39" value="1,b,a,c" style="text;html=1;strokeColor=#33001A;fillColor=none;align=center;verticalAlign=middle;whiteSpace=wrap;rounded=0;shadow=0;" vertex="1" parent="1">
                    <mxGeometry x="70" y="525" width="40" height="20" as="geometry"/>
                </mxCell>
                <mxCell id="40" value="1,c,b,a" style="text;html=1;strokeColor=#33001A;fillColor=none;align=center;verticalAlign=middle;whiteSpace=wrap;rounded=0;shadow=0;" vertex="1" parent="1">
                    <mxGeometry x="280" y="505" width="40" height="20" as="geometry"/>
                </mxCell>
                <mxCell id="41" value="1,b,c,a" style="text;html=1;strokeColor=#33001A;fillColor=none;align=center;verticalAlign=middle;whiteSpace=wrap;rounded=0;shadow=0;" vertex="1" parent="1">
                    <mxGeometry x="430" y="495" width="40" height="20" as="geometry"/>
                </mxCell>
                <mxCell id="42" value="2,b,c,a" style="text;html=1;strokeColor=#33001A;fillColor=none;align=center;verticalAlign=middle;whiteSpace=wrap;rounded=0;shadow=0;" vertex="1" parent="1">
                    <mxGeometry x="310" y="355" width="40" height="20" as="geometry"/>
                </mxCell>
                <mxCell id="43" value="2,a,b,c" style="text;html=1;strokeColor=#33001A;fillColor=none;align=center;verticalAlign=middle;whiteSpace=wrap;rounded=0;shadow=0;" vertex="1" parent="1">
                    <mxGeometry x="800" y="335" width="40" height="20" as="geometry"/>
                </mxCell>
                <mxCell id="44" value="2,c,a,b" style="text;html=1;strokeColor=#33001A;fillColor=none;align=center;verticalAlign=middle;whiteSpace=wrap;rounded=0;shadow=0;" vertex="1" parent="1">
                    <mxGeometry x="610" y="335" width="40" height="20" as="geometry"/>
                </mxCell>
                <mxCell id="45" value="3,a,c,b" style="text;html=1;strokeColor=#33001A;fillColor=none;align=center;verticalAlign=middle;whiteSpace=wrap;rounded=0;shadow=0;" vertex="1" parent="1">
                    <mxGeometry x="620" y="200" width="40" height="20" as="geometry"/>
                </mxCell>
                <mxCell id="47" value="1,a,c,b" style="text;html=1;strokeColor=#33001A;fillColor=none;align=center;verticalAlign=middle;whiteSpace=wrap;rounded=0;shadow=0;" vertex="1" parent="1">
                    <mxGeometry x="910" y="515" width="40" height="20" as="geometry"/>
                </mxCell>
                <mxCell id="48" value="q1" style="ellipse;whiteSpace=wrap;html=1;aspect=fixed;strokeColor=#33001A;" vertex="1" parent="1">
                    <mxGeometry x="434" width="74" height="74" as="geometry"/>
                </mxCell>
                <mxCell id="49" value="" style="endArrow=classic;html=1;entryX=0.5;entryY=0;entryDx=0;entryDy=0;exitX=0.5;exitY=1;exitDx=0;exitDy=0;strokeColor=#33001A;shadow=0;" edge="1" parent="1" source="48" target="3">
                    <mxGeometry width="50" height="50" relative="1" as="geometry">
                        <mxPoint x="380" y="140" as="sourcePoint"/>
                        <mxPoint x="430" y="90" as="targetPoint"/>
                    </mxGeometry>
                </mxCell>
                <mxCell id="50" value="3,b,a,c" style="text;html=1;strokeColor=#33001A;fillColor=none;align=center;verticalAlign=middle;whiteSpace=wrap;rounded=0;shadow=0;" vertex="1" parent="1">
                    <mxGeometry x="290" y="210" width="40" height="20" as="geometry"/>
                </mxCell>
                <mxCell id="54" value="B" style="text;html=1;strokeColor=#33001A;fillColor=none;align=center;verticalAlign=middle;whiteSpace=wrap;rounded=0;shadow=0;" vertex="1" parent="1">
                    <mxGeometry x="40" y="762" width="40" height="20" as="geometry"/>
                </mxCell>
                <mxCell id="55" value="B" style="text;html=1;strokeColor=#33001A;fillColor=none;align=center;verticalAlign=middle;whiteSpace=wrap;rounded=0;shadow=0;" vertex="1" parent="1">
                    <mxGeometry x="180" y="840" width="40" height="20" as="geometry"/>
                </mxCell>
                <mxCell id="56" value="A" style="text;html=1;strokeColor=#33001A;fillColor=none;align=center;verticalAlign=middle;whiteSpace=wrap;rounded=0;shadow=0;" vertex="1" parent="1">
                    <mxGeometry x="310" y="840" width="40" height="20" as="geometry"/>
                </mxCell>
                <mxCell id="57" value="C" style="text;html=1;strokeColor=#33001A;fillColor=none;align=center;verticalAlign=middle;whiteSpace=wrap;rounded=0;shadow=0;" vertex="1" parent="1">
                    <mxGeometry x="434" y="830" width="40" height="20" as="geometry"/>
                </mxCell>
                <mxCell id="58" value="B" style="text;html=1;strokeColor=#33001A;fillColor=none;align=center;verticalAlign=middle;whiteSpace=wrap;rounded=0;shadow=0;" vertex="1" parent="1">
                    <mxGeometry x="560" y="830" width="40" height="20" as="geometry"/>
                </mxCell>
                <mxCell id="59" value="A" style="text;html=1;strokeColor=#33001A;fillColor=none;align=center;verticalAlign=middle;whiteSpace=wrap;rounded=0;shadow=0;" vertex="1" parent="1">
                    <mxGeometry x="180" y="760" width="40" height="20" as="geometry"/>
                </mxCell>
                <mxCell id="60" value="C" style="text;html=1;strokeColor=#33001A;fillColor=none;align=center;verticalAlign=middle;whiteSpace=wrap;rounded=0;shadow=0;" vertex="1" parent="1">
                    <mxGeometry x="310" y="760" width="40" height="20" as="geometry"/>
                </mxCell>
                <mxCell id="61" value="B" style="text;html=1;strokeColor=#33001A;fillColor=none;align=center;verticalAlign=middle;whiteSpace=wrap;rounded=0;shadow=0;" vertex="1" parent="1">
                    <mxGeometry x="434" y="750" width="40" height="20" as="geometry"/>
                </mxCell>
                <mxCell id="62" value="A" style="text;html=1;strokeColor=#33001A;fillColor=none;align=center;verticalAlign=middle;whiteSpace=wrap;rounded=0;shadow=0;" vertex="1" parent="1">
                    <mxGeometry x="560" y="750" width="40" height="20" as="geometry"/>
                </mxCell>
                <mxCell id="63" value="A" style="text;html=1;strokeColor=#33001A;fillColor=none;align=center;verticalAlign=middle;whiteSpace=wrap;rounded=0;shadow=0;" vertex="1" parent="1">
                    <mxGeometry x="677" y="830" width="40" height="30" as="geometry"/>
                </mxCell>
                <mxCell id="64" value="C" style="text;html=1;strokeColor=#33001A;fillColor=none;align=center;verticalAlign=middle;whiteSpace=wrap;rounded=0;shadow=0;" vertex="1" parent="1">
                    <mxGeometry x="787" y="840" width="40" height="20" as="geometry"/>
                </mxCell>
                <mxCell id="65" value="B" style="text;html=1;strokeColor=#33001A;fillColor=none;align=center;verticalAlign=middle;whiteSpace=wrap;rounded=0;shadow=0;" vertex="1" parent="1">
                    <mxGeometry x="920" y="830" width="40" height="20" as="geometry"/>
                </mxCell>
                <mxCell id="66" value="C" style="text;html=1;strokeColor=#33001A;fillColor=none;align=center;verticalAlign=middle;whiteSpace=wrap;rounded=0;shadow=0;" vertex="1" parent="1">
                    <mxGeometry x="677" y="750" width="40" height="20" as="geometry"/>
                </mxCell>
                <mxCell id="67" value="B" style="text;html=1;strokeColor=#33001A;fillColor=none;align=center;verticalAlign=middle;whiteSpace=wrap;rounded=0;shadow=0;" vertex="1" parent="1">
                    <mxGeometry x="787" y="750" width="40" height="20" as="geometry"/>
                </mxCell>
                <mxCell id="68" value="A" style="text;html=1;strokeColor=#33001A;fillColor=none;align=center;verticalAlign=middle;whiteSpace=wrap;rounded=0;shadow=0;" vertex="1" parent="1">
                    <mxGeometry x="920" y="740" width="40" height="20" as="geometry"/>
                </mxCell>
                <mxCell id="69" value="C" style="text;html=1;strokeColor=#33001A;fillColor=none;align=center;verticalAlign=middle;whiteSpace=wrap;rounded=0;shadow=0;" vertex="1" parent="1">
                    <mxGeometry x="40" y="840" width="40" height="20" as="geometry"/>
                </mxCell>
                <mxCell id="71" value="" style="endArrow=classic;html=1;shadow=0;strokeColor=#33001A;" edge="1" parent="1">
                    <mxGeometry width="50" height="50" relative="1" as="geometry">
                        <mxPoint x="59" y="792" as="sourcePoint"/>
                        <mxPoint x="59" y="842" as="targetPoint"/>
                    </mxGeometry>
                </mxCell>
                <mxCell id="72" value="" style="endArrow=classic;html=1;shadow=0;strokeColor=#33001A;exitX=0.5;exitY=1;exitDx=0;exitDy=0;" edge="1" parent="1" source="59">
                    <mxGeometry width="50" height="50" relative="1" as="geometry">
                        <mxPoint x="199" y="780" as="sourcePoint"/>
                        <mxPoint x="199" y="830" as="targetPoint"/>
                    </mxGeometry>
                </mxCell>
                <mxCell id="74" value="" style="endArrow=classic;html=1;shadow=0;strokeColor=#33001A;" edge="1" parent="1">
                    <mxGeometry width="50" height="50" relative="1" as="geometry">
                        <mxPoint x="939" y="770" as="sourcePoint"/>
                        <mxPoint x="939" y="820" as="targetPoint"/>
                        <Array as="points">
                            <mxPoint x="940" y="800"/>
                        </Array>
                    </mxGeometry>
                </mxCell>
                <mxCell id="75" value="" style="endArrow=classic;html=1;shadow=0;strokeColor=#33001A;" edge="1" parent="1">
                    <mxGeometry width="50" height="50" relative="1" as="geometry">
                        <mxPoint x="329" y="785" as="sourcePoint"/>
                        <mxPoint x="329" y="835" as="targetPoint"/>
                        <Array as="points">
                            <mxPoint x="330" y="815"/>
                        </Array>
                    </mxGeometry>
                </mxCell>
                <mxCell id="76" value="" style="endArrow=classic;html=1;shadow=0;strokeColor=#33001A;" edge="1" parent="1">
                    <mxGeometry width="50" height="50" relative="1" as="geometry">
                        <mxPoint x="579" y="765" as="sourcePoint"/>
                        <mxPoint x="579" y="815" as="targetPoint"/>
                        <Array as="points">
                            <mxPoint x="580" y="795"/>
                        </Array>
                    </mxGeometry>
                </mxCell>
                <mxCell id="77" value="" style="endArrow=classic;html=1;shadow=0;strokeColor=#33001A;" edge="1" parent="1">
                    <mxGeometry width="50" height="50" relative="1" as="geometry">
                        <mxPoint x="696" y="770" as="sourcePoint"/>
                        <mxPoint x="696" y="820" as="targetPoint"/>
                        <Array as="points">
                            <mxPoint x="697" y="800"/>
                        </Array>
                    </mxGeometry>
                </mxCell>
                <mxCell id="78" value="" style="endArrow=classic;html=1;shadow=0;strokeColor=#33001A;" edge="1" parent="1">
                    <mxGeometry width="50" height="50" relative="1" as="geometry">
                        <mxPoint x="805" y="780" as="sourcePoint"/>
                        <mxPoint x="805" y="830" as="targetPoint"/>
                        <Array as="points">
                            <mxPoint x="806" y="810"/>
                        </Array>
                    </mxGeometry>
                </mxCell>
                <mxCell id="79" value="" style="endArrow=classic;html=1;shadow=0;strokeColor=#33001A;" edge="1" parent="1">
                    <mxGeometry width="50" height="50" relative="1" as="geometry">
                        <mxPoint x="453" y="775" as="sourcePoint"/>
                        <mxPoint x="453" y="825" as="targetPoint"/>
                        <Array as="points">
                            <mxPoint x="454" y="805"/>
                        </Array>
                    </mxGeometry>
                </mxCell>
                <mxCell id="80" value="" style="endArrow=classic;html=1;shadow=0;strokeColor=#33001A;exitX=0.5;exitY=1;exitDx=0;exitDy=0;" edge="1" parent="1" source="17">
                    <mxGeometry width="50" height="50" relative="1" as="geometry">
                        <mxPoint x="70" y="700" as="sourcePoint"/>
                        <mxPoint x="60" y="750" as="targetPoint"/>
                        <Array as="points">
                            <mxPoint x="60" y="720"/>
                        </Array>
                    </mxGeometry>
                </mxCell>
                <mxCell id="81" value="" style="endArrow=classic;html=1;shadow=0;strokeColor=#33001A;exitX=0.5;exitY=1;exitDx=0;exitDy=0;" edge="1" parent="1" source="15">
                    <mxGeometry width="50" height="50" relative="1" as="geometry">
                        <mxPoint x="359" y="710" as="sourcePoint"/>
                        <mxPoint x="330" y="740" as="targetPoint"/>
                        <Array as="points"/>
                    </mxGeometry>
                </mxCell>
                <mxCell id="83" value="" style="endArrow=classic;html=1;shadow=0;strokeColor=#33001A;exitX=0.5;exitY=1;exitDx=0;exitDy=0;" edge="1" parent="1" source="16">
                    <mxGeometry width="50" height="50" relative="1" as="geometry">
                        <mxPoint x="210" y="700" as="sourcePoint"/>
                        <mxPoint x="200" y="750" as="targetPoint"/>
                        <Array as="points">
                            <mxPoint x="200" y="720"/>
                        </Array>
                    </mxGeometry>
                </mxCell>
                <mxCell id="84" value="" style="endArrow=classic;html=1;shadow=0;strokeColor=#33001A;exitX=0.5;exitY=1;exitDx=0;exitDy=0;" edge="1" parent="1" source="11">
                    <mxGeometry width="50" height="50" relative="1" as="geometry">
                        <mxPoint x="810" y="690" as="sourcePoint"/>
                        <mxPoint x="800" y="740" as="targetPoint"/>
                        <Array as="points"/>
                    </mxGeometry>
                </mxCell>
                <mxCell id="85" value="" style="endArrow=classic;html=1;shadow=0;strokeColor=#33001A;exitX=0.5;exitY=1;exitDx=0;exitDy=0;" edge="1" parent="1" source="14">
                    <mxGeometry width="50" height="50" relative="1" as="geometry">
                        <mxPoint x="480" y="690" as="sourcePoint"/>
                        <mxPoint x="450" y="740" as="targetPoint"/>
                        <Array as="points"/>
                    </mxGeometry>
                </mxCell>
                <mxCell id="86" value="" style="endArrow=classic;html=1;shadow=0;strokeColor=#33001A;exitX=0.5;exitY=1;exitDx=0;exitDy=0;" edge="1" parent="1" source="10">
                    <mxGeometry width="50" height="50" relative="1" as="geometry">
                        <mxPoint x="950" y="680" as="sourcePoint"/>
                        <mxPoint x="930" y="730" as="targetPoint"/>
                        <Array as="points"/>
                    </mxGeometry>
                </mxCell>
                <mxCell id="87" value="" style="endArrow=classic;html=1;shadow=0;strokeColor=#33001A;exitX=0.5;exitY=1;exitDx=0;exitDy=0;" edge="1" parent="1" source="12">
                    <mxGeometry width="50" height="50" relative="1" as="geometry">
                        <mxPoint x="708" y="700" as="sourcePoint"/>
                        <mxPoint x="700" y="730" as="targetPoint"/>
                        <Array as="points"/>
                    </mxGeometry>
                </mxCell>
                <mxCell id="88" value="" style="endArrow=classic;html=1;shadow=0;strokeColor=#33001A;" edge="1" parent="1">
                    <mxGeometry width="50" height="50" relative="1" as="geometry">
                        <mxPoint x="580" y="690" as="sourcePoint"/>
                        <mxPoint x="580" y="740" as="targetPoint"/>
                        <Array as="points">
                            <mxPoint x="580" y="650"/>
                        </Array>
                    </mxGeometry>
                </mxCell>
                <mxCell id="90" value="A" style="text;html=1;strokeColor=#33001A;fillColor=none;align=center;verticalAlign=middle;whiteSpace=wrap;rounded=0;shadow=0;" vertex="1" parent="1">
                    <mxGeometry x="113" y="900" width="40" height="20" as="geometry"/>
                </mxCell>
                <mxCell id="91" value="C" style="text;html=1;strokeColor=#33001A;fillColor=none;align=center;verticalAlign=middle;whiteSpace=wrap;rounded=0;shadow=0;" vertex="1" parent="1">
                    <mxGeometry x="263" y="980" width="40" height="20" as="geometry"/>
                </mxCell>
                <mxCell id="92" value="A" style="text;html=1;strokeColor=#33001A;fillColor=none;align=center;verticalAlign=middle;whiteSpace=wrap;rounded=0;shadow=0;" vertex="1" parent="1">
                    <mxGeometry x="373" y="980" width="40" height="20" as="geometry"/>
                </mxCell>
                <mxCell id="93" value="C" style="text;html=1;strokeColor=#33001A;fillColor=none;align=center;verticalAlign=middle;whiteSpace=wrap;rounded=0;shadow=0;" vertex="1" parent="1">
                    <mxGeometry x="510" y="970" width="40" height="20" as="geometry"/>
                </mxCell>
                <mxCell id="94" value="B" style="text;html=1;strokeColor=#33001A;fillColor=none;align=center;verticalAlign=middle;whiteSpace=wrap;rounded=0;shadow=0;" vertex="1" parent="1">
                    <mxGeometry x="623" y="970" width="40" height="20" as="geometry"/>
                </mxCell>
                <mxCell id="95" value="B" style="text;html=1;strokeColor=#33001A;fillColor=none;align=center;verticalAlign=middle;whiteSpace=wrap;rounded=0;shadow=0;" vertex="1" parent="1">
                    <mxGeometry x="263" y="900" width="40" height="20" as="geometry"/>
                </mxCell>
                <mxCell id="96" value="B" style="text;html=1;strokeColor=#33001A;fillColor=none;align=center;verticalAlign=middle;whiteSpace=wrap;rounded=0;shadow=0;" vertex="1" parent="1">
                    <mxGeometry x="373" y="900" width="40" height="20" as="geometry"/>
                </mxCell>
                <mxCell id="97" value="A" style="text;html=1;strokeColor=#33001A;fillColor=none;align=center;verticalAlign=middle;whiteSpace=wrap;rounded=0;shadow=0;" vertex="1" parent="1">
                    <mxGeometry x="510" y="890" width="40" height="20" as="geometry"/>
                </mxCell>
                <mxCell id="98" value="C" style="text;html=1;strokeColor=#33001A;fillColor=none;align=center;verticalAlign=middle;whiteSpace=wrap;rounded=0;shadow=0;" vertex="1" parent="1">
                    <mxGeometry x="623" y="890" width="40" height="20" as="geometry"/>
                </mxCell>
                <mxCell id="99" value="B" style="text;html=1;strokeColor=#33001A;fillColor=none;align=center;verticalAlign=middle;whiteSpace=wrap;rounded=0;shadow=0;" vertex="1" parent="1">
                    <mxGeometry x="740" y="970" width="40" height="30" as="geometry"/>
                </mxCell>
                <mxCell id="100" value="C" style="text;html=1;strokeColor=#33001A;fillColor=none;align=center;verticalAlign=middle;whiteSpace=wrap;rounded=0;shadow=0;" vertex="1" parent="1">
                    <mxGeometry x="850" y="980" width="40" height="20" as="geometry"/>
                </mxCell>
                <mxCell id="101" value="A" style="text;html=1;strokeColor=#33001A;fillColor=none;align=center;verticalAlign=middle;whiteSpace=wrap;rounded=0;shadow=0;" vertex="1" parent="1">
                    <mxGeometry x="740" y="890" width="40" height="20" as="geometry"/>
                </mxCell>
                <mxCell id="102" value="A" style="text;html=1;strokeColor=#33001A;fillColor=none;align=center;verticalAlign=middle;whiteSpace=wrap;rounded=0;shadow=0;" vertex="1" parent="1">
                    <mxGeometry x="850" y="890" width="40" height="20" as="geometry"/>
                </mxCell>
                <mxCell id="103" value="C" style="text;html=1;strokeColor=#33001A;fillColor=none;align=center;verticalAlign=middle;whiteSpace=wrap;rounded=0;shadow=0;" vertex="1" parent="1">
                    <mxGeometry x="113" y="978" width="40" height="20" as="geometry"/>
                </mxCell>
                <mxCell id="104" value="" style="endArrow=classic;html=1;shadow=0;strokeColor=#33001A;" edge="1" parent="1">
                    <mxGeometry width="50" height="50" relative="1" as="geometry">
                        <mxPoint x="132" y="930" as="sourcePoint"/>
                        <mxPoint x="132" y="980" as="targetPoint"/>
                    </mxGeometry>
                </mxCell>
                <mxCell id="105" value="" style="endArrow=classic;html=1;shadow=0;strokeColor=#33001A;" edge="1" parent="1">
                    <mxGeometry width="50" height="50" relative="1" as="geometry">
                        <mxPoint x="282" y="920" as="sourcePoint"/>
                        <mxPoint x="282" y="970" as="targetPoint"/>
                    </mxGeometry>
                </mxCell>
                <mxCell id="106" value="" style="endArrow=classic;html=1;shadow=0;strokeColor=#33001A;" edge="1" parent="1">
                    <mxGeometry width="50" height="50" relative="1" as="geometry">
                        <mxPoint x="392" y="925" as="sourcePoint"/>
                        <mxPoint x="392" y="975" as="targetPoint"/>
                        <Array as="points">
                            <mxPoint x="393" y="955"/>
                        </Array>
                    </mxGeometry>
                </mxCell>
                <mxCell id="107" value="" style="endArrow=classic;html=1;shadow=0;strokeColor=#33001A;" edge="1" parent="1">
                    <mxGeometry width="50" height="50" relative="1" as="geometry">
                        <mxPoint x="642" y="905" as="sourcePoint"/>
                        <mxPoint x="642" y="955" as="targetPoint"/>
                        <Array as="points">
                            <mxPoint x="643" y="935"/>
                        </Array>
                    </mxGeometry>
                </mxCell>
                <mxCell id="108" value="" style="endArrow=classic;html=1;shadow=0;strokeColor=#33001A;" edge="1" parent="1">
                    <mxGeometry width="50" height="50" relative="1" as="geometry">
                        <mxPoint x="759" y="910" as="sourcePoint"/>
                        <mxPoint x="759" y="960" as="targetPoint"/>
                        <Array as="points">
                            <mxPoint x="760" y="940"/>
                        </Array>
                    </mxGeometry>
                </mxCell>
                <mxCell id="109" value="" style="endArrow=classic;html=1;shadow=0;strokeColor=#33001A;" edge="1" parent="1">
                    <mxGeometry width="50" height="50" relative="1" as="geometry">
                        <mxPoint x="868" y="920" as="sourcePoint"/>
                        <mxPoint x="868" y="970" as="targetPoint"/>
                        <Array as="points">
                            <mxPoint x="869" y="950"/>
                        </Array>
                    </mxGeometry>
                </mxCell>
                <mxCell id="110" value="" style="endArrow=classic;html=1;shadow=0;strokeColor=#33001A;" edge="1" parent="1">
                    <mxGeometry width="50" height="50" relative="1" as="geometry">
                        <mxPoint x="529" y="915" as="sourcePoint"/>
                        <mxPoint x="529" y="965" as="targetPoint"/>
                        <Array as="points">
                            <mxPoint x="530" y="945"/>
                        </Array>
                    </mxGeometry>
                </mxCell>
                <mxCell id="112" value="" style="endArrow=classic;html=1;shadow=0;strokeColor=#33001A;" edge="1" parent="1" source="9">
                    <mxGeometry width="50" height="50" relative="1" as="geometry">
                        <mxPoint x="110" y="840" as="sourcePoint"/>
                        <mxPoint x="130" y="890" as="targetPoint"/>
                    </mxGeometry>
                </mxCell>
                <mxCell id="113" value="" style="endArrow=classic;html=1;shadow=0;strokeColor=#33001A;exitX=0.5;exitY=1;exitDx=0;exitDy=0;" edge="1" parent="1" source="4">
                    <mxGeometry width="50" height="50" relative="1" as="geometry">
                        <mxPoint x="240" y="760" as="sourcePoint"/>
                        <mxPoint x="280" y="890" as="targetPoint"/>
                    </mxGeometry>
                </mxCell>
                <mxCell id="114" value="" style="endArrow=classic;html=1;shadow=0;strokeColor=#33001A;entryX=0.5;entryY=0;entryDx=0;entryDy=0;" edge="1" parent="1" source="8" target="96">
                    <mxGeometry width="50" height="50" relative="1" as="geometry">
                        <mxPoint x="390" y="770" as="sourcePoint"/>
                        <mxPoint x="440" y="720" as="targetPoint"/>
                    </mxGeometry>
                </mxCell>
                <mxCell id="115" value="" style="endArrow=classic;html=1;shadow=0;strokeColor=#33001A;entryX=0.25;entryY=0;entryDx=0;entryDy=0;" edge="1" parent="1" source="3" target="97">
                    <mxGeometry width="50" height="50" relative="1" as="geometry">
                        <mxPoint x="440" y="410" as="sourcePoint"/>
                        <mxPoint x="490" y="360" as="targetPoint"/>
                    </mxGeometry>
                </mxCell>
                <mxCell id="116" value="" style="endArrow=classic;html=1;shadow=0;strokeColor=#33001A;exitX=0.5;exitY=1;exitDx=0;exitDy=0;entryX=0.5;entryY=0;entryDx=0;entryDy=0;" edge="1" parent="1" source="7" target="98">
                    <mxGeometry width="50" height="50" relative="1" as="geometry">
                        <mxPoint x="610" y="790" as="sourcePoint"/>
                        <mxPoint x="660" y="740" as="targetPoint"/>
                    </mxGeometry>
                </mxCell>
                <mxCell id="117" value="" style="endArrow=classic;html=1;shadow=0;strokeColor=#33001A;exitX=0.5;exitY=1;exitDx=0;exitDy=0;entryX=0.5;entryY=0;entryDx=0;entryDy=0;" edge="1" parent="1" source="5" target="101">
                    <mxGeometry width="50" height="50" relative="1" as="geometry">
                        <mxPoint x="710" y="450" as="sourcePoint"/>
                        <mxPoint x="750" y="720" as="targetPoint"/>
                    </mxGeometry>
                </mxCell>
                <mxCell id="118" value="" style="endArrow=classic;html=1;shadow=0;strokeColor=#33001A;exitX=0.5;exitY=1;exitDx=0;exitDy=0;entryX=0.5;entryY=0;entryDx=0;entryDy=0;" edge="1" parent="1" source="6" target="102">
                    <mxGeometry width="50" height="50" relative="1" as="geometry">
                        <mxPoint x="850" y="780" as="sourcePoint"/>
                        <mxPoint x="900" y="730" as="targetPoint"/>
                    </mxGeometry>
                </mxCell>
            </root>
        </mxGraphModel>
    </diagram>
</mxfile>